<svg xmlns="http://www.w3.org/2000/svg" style="fill: cyan; display: block;" viewBox="0 0 100 125" x="0px" y="0px">
<title>flash granade, granade, flashbang, explosive</title>
<g data-name="Flas Granade">
<path d="M38.59188,53.36286l-.00019.00019a4.65268,4.65268,0,1,0,.00019-.00019Zm5.16582,5.16582A2.65275,2.65275,0,1,1,40.006,54.77731l.00019-.00019a2.65275,2.65275,0,0,1,3.75156,3.75156Z"/><path d="M90.5996,24.676a3.92664,3.92664,0,0,0-.13447-5.525L78.79169,7.89391a.99767.99767,0,0,0-.7793-.27656l-27.824,2.37578a.99826.99826,0,0,0-.62188.28926L19.30224,40.54645a.99982.99982,0,0,0,0,1.41406l4.573,4.57325c3.09706,3.09612,7.77637-1.58544,4.68067-4.68067l-1.302-1.30215L51.90868,15.89626l9.30176-.4836,2.10664,2.10664,3.769,3.76905-1.75254,1.75244L63.5036,21.2029a.99961.99961,0,0,0-.70625-.29434l-9.14023-.02168h-.00234a1.01582,1.01582,0,0,0-.70528.291c-9.20485,9.15707-8.89535,8.84918-9.32715,9.27871a1,1,0,0,0-.29472.70664L43.30692,39.891,25.13627,58.06164l-8.61138-.02041a.99627.99627,0,0,0-.5769.16655c-.16023.106-.29818.26906-9.478,9.40137a1.00006,1.00006,0,0,0-.29473.70664L6.1536,77.45993a1.00013,1.00013,0,0,0,.29141.708L20.287,92.07028a.99963.99963,0,0,0,.70625.29434l9.14434.02168h.00234a1.00062,1.00062,0,0,0,.70527-.291l9.3252-9.27695a1.02951,1.02951,0,0,0,.29473-.70664l.0209-8.82344L58.55927,55.215l8.72871.0209h.00234a1.00065,1.00065,0,0,0,.70528-.291l8.73833-8.69312A13.37639,13.37639,0,0,0,90.5996,24.676ZM61.55087,13.39235l-10.12969.52656a.99934.99934,0,0,0-.65508.2916L25.1327,39.84391a.99965.99965,0,0,0,0,1.41407l2.00918,2.00918a1.30991,1.30991,0,0,1-1.85253,1.85234l-3.86582-3.866L50.72235,11.95466,77.73017,9.6486l11.34668,10.942a1.93663,1.93663,0,1,1-2.71368,2.76348l-9.96445-9.96426a1.00063,1.00063,0,0,0-1.65195.37949l-.96172,2.77559a2.22282,2.22282,0,0,1-2.77442,1.3998L64.55712,15.931,62.30985,13.684A.98951.98951,0,0,0,61.55087,13.39235Zm16.4209,15.95352L67.60233,18.97643l2.8126.87764A4.21338,4.21338,0,0,0,75.6747,17.2l.43906-1.267L83.829,23.64821a16.14949,16.14949,0,0,0-4.14121,5.41641A1.06679,1.06679,0,0,1,77.97177,29.34587Zm-9.54629-6.56836,7.33105,7.33105-1.68008,1.67988-7.331-7.33105Zm-3.80884,2.37778.00747.00913.37031.37031L75.63817,36.22458l-.015,6.31509-.8727-.8772A4.85411,4.85411,0,0,0,70.65365,40.267a4.85664,4.85664,0,0,0-1.37485-4.10469l-6.868-6.89179a4.855,4.855,0,0,0-4.09692-1.39571,4.85392,4.85392,0,0,0-1.37437-4.1039l-.87368-.87827,6.31274.015ZM67.5997,52.51755l-1.87051-1.88047a2.88187,2.88187,0,0,1,.01055-4.0711l3.52168-3.50351a2.87815,2.87815,0,0,1,4.07109.01054l1.87065,1.88033Zm-14.459,5.28789a2.65337,2.65337,0,0,1,3.43252-3.43252ZM51.2869,59.65925A4.64813,4.64813,0,0,0,44.888,66.05812l-.37168.37168a4.65632,4.65632,0,0,0-7.01909,3.11988l-1.54668-1.55337a4.651,4.651,0,1,0-4.1294-7.86275l-.00019.0002A4.61746,4.61746,0,0,0,30.53978,62.562l-1.52417-1.53081a4.65455,4.65455,0,0,0,3.05269-7.07344l.34756-.34756a4.65022,4.65022,0,0,0,6.42334-6.42334l.34736-.34736a4.64947,4.64947,0,0,0,7.0874-3.13569l1.58956,1.59643a4.65236,4.65236,0,1,0,5.36792,5.39116l1.57524,1.58213a4.63789,4.63789,0,0,0-3.15093,7.0169ZM46.37235,64.5738a2.64891,2.64891,0,0,1,3.43013-3.43013Zm-15.925,25.09609-1.8705-1.88027a2.877,2.877,0,0,1,.01035-4.0711l3.52187-3.50371a2.88258,2.88258,0,0,1,4.0711.01055l1.87065,1.88032ZM16.49872,60.45348l1.87051,1.88028a2.87711,2.87711,0,0,1-.01055,4.07109L14.837,69.90856a2.88185,2.88185,0,0,1-4.07109-.01055L8.89525,68.01769Zm-.25117,10.87305,3.52168-3.50371a2.87807,2.87807,0,0,1,4.07168.01113l6.86816,6.8918a2.87711,2.87711,0,0,1-.01054,4.07109l-3.52188,3.50371a2.88186,2.88186,0,0,1-4.07168-.01113L16.23642,75.397A2.88186,2.88186,0,0,1,16.24755,71.32653Zm21.35058,7.48828a4.86852,4.86852,0,0,0-4.0977-1.38847,4.85666,4.85666,0,0,0-1.374-4.11172l-6.86816-6.8918a4.869,4.869,0,0,0-4.0977-1.38848,4.85677,4.85677,0,0,0-1.37339-4.11113l-.87173-.87632,6.28686.01494c.20343.16674-1.08942-1.12014,13.2835,13.31529l-.015,6.31489Zm-7.005-23.38193a2.65249,2.65249,0,0,1-3.47285,3.47285ZM33.23524,61.548l.0002-.00019a2.65275,2.65275,0,1,1,.23843,3.96094l-.45381-.45576A2.64708,2.64708,0,0,1,33.23524,61.548Zm6.36529,9.79761a2.65165,2.65165,0,0,1,3.43125-3.43125ZM37.36532,48.66071A2.6521,2.6521,0,0,1,33.891,52.135ZM44.136,41.89a2.65285,2.65285,0,0,1-3.47432,3.47431Zm7.16914,7.99218a2.65274,2.65274,0,1,1-.777-1.87578A2.63566,2.63566,0,0,1,51.30517,49.88219ZM58.56649,53.215,45.30692,39.898l.01641-6.925,1.17695,1.183a4.8563,4.8563,0,0,0,4.10381,1.39483,4.86855,4.86855,0,0,0,1.36729,4.10478l.00058.00059,6.86817,6.892a4.85458,4.85458,0,0,0,4.10381,1.39463,4.86824,4.86824,0,0,0,1.36728,4.10478l1.17773,1.184ZM53.65111,23.30109l1.87066,1.88032a2.87727,2.87727,0,0,1-.01055,4.0711L51.98935,32.756a2.87994,2.87994,0,0,1-4.0711-.01054L46.0476,30.8652ZM67.85087,41.6445,64.32919,45.148a2.8779,2.8779,0,0,1-4.07168-.01093L53.38876,38.2445a2.88187,2.88187,0,0,1,.01113-4.07051l3.52188-3.50371a2.878,2.878,0,0,1,4.07168.01133l6.868,6.8918A2.87712,2.87712,0,0,1,67.85087,41.6445ZM8.15458,77.05036,8.171,70.12555l1.17695,1.183a4.847,4.847,0,0,0,4.0977,1.38867A4.85651,4.85651,0,0,0,14.819,76.80817l.00059.00059,6.868,6.89179a4.84713,4.84713,0,0,0,4.09775,1.38868,4.85558,4.85558,0,0,0,1.37354,4.11093L28.33456,90.382,21.412,90.36559ZM88.511,41.449a11.30218,11.30218,0,0,1-10.89229,2.97256l.02041-8.60654a1.00007,1.00007,0,0,0-.29141-.708l-1.87656-1.88472,1.88858-1.88847a3.05772,3.05772,0,0,0,4.13154-1.40435,14.0765,14.0765,0,0,1,3.77754-4.87607,3.93361,3.93361,0,0,0,3.61543.69726A11.36982,11.36982,0,0,1,88.511,41.449Z"/>
</g>
<text x="0" y="115" fill="#000000" font-size="5px" font-weight="bold" font-family="'Helvetica Neue', Helvetica, Arial-Unicode, Arial, Sans-serif">Created by Bacontaco</text><text x="0" y="120" fill="#000000" font-size="5px" font-weight="bold" font-family="'Helvetica Neue', Helvetica, Arial-Unicode, Arial, Sans-serif">from the Noun Project</text></svg>